<svg xmlns="http://www.w3.org/2000/svg" xmlns:xlink="http://www.w3.org/1999/xlink" width="2000" zoomAndPan="magnify" viewBox="0 0 1500 1499.999933" height="2000" preserveAspectRatio="xMidYMid meet" version="1.0"><defs><clipPath id="e0440965d1"><path d="M 293.316406 1 L 1206.8125 1 L 1206.8125 1499 L 293.316406 1499 Z M 293.316406 1 " clip-rule="nonzero"/></clipPath><clipPath id="d78c1d0834"><path d="M 0.316406 23 L 913.8125 23 L 913.8125 1496 L 0.316406 1496 Z M 0.316406 23 " clip-rule="nonzero"/></clipPath><clipPath id="452b82dac5"><rect x="0" width="914" y="0" height="1498"/></clipPath><clipPath id="baf89420df"><path d="M 698.25 430.253906 L 801.75 430.253906 L 801.75 533.753906 L 698.25 533.753906 Z M 698.25 430.253906 " clip-rule="nonzero"/></clipPath><clipPath id="857577b254"><path d="M 750 430.253906 C 721.417969 430.253906 698.25 453.421875 698.25 482.003906 C 698.25 510.585938 721.417969 533.753906 750 533.753906 C 778.582031 533.753906 801.75 510.585938 801.75 482.003906 C 801.75 453.421875 778.582031 430.253906 750 430.253906 Z M 750 430.253906 " clip-rule="nonzero"/></clipPath><clipPath id="036f1994b6"><path d="M 0.25 0.253906 L 103.75 0.253906 L 103.75 103.753906 L 0.25 103.753906 Z M 0.25 0.253906 " clip-rule="nonzero"/></clipPath><clipPath id="e55a3ed624"><path d="M 52 0.253906 C 23.417969 0.253906 0.25 23.421875 0.25 52.003906 C 0.25 80.585938 23.417969 103.753906 52 103.753906 C 80.582031 103.753906 103.75 80.585938 103.75 52.003906 C 103.75 23.421875 80.582031 0.253906 52 0.253906 Z M 52 0.253906 " clip-rule="nonzero"/></clipPath><clipPath id="67b5cbc866"><rect x="0" width="104" y="0" height="104"/></clipPath><clipPath id="3224ec60fa"><path d="M 698.25 987.707031 L 801.75 987.707031 L 801.75 1091.207031 L 698.25 1091.207031 Z M 698.25 987.707031 " clip-rule="nonzero"/></clipPath><clipPath id="1c1140890d"><path d="M 750 987.707031 C 721.417969 987.707031 698.25 1010.878906 698.25 1039.457031 C 698.25 1068.039062 721.417969 1091.207031 750 1091.207031 C 778.582031 1091.207031 801.75 1068.039062 801.75 1039.457031 C 801.75 1010.878906 778.582031 987.707031 750 987.707031 Z M 750 987.707031 " clip-rule="nonzero"/></clipPath><clipPath id="b095314846"><path d="M 0.25 0.707031 L 103.75 0.707031 L 103.75 104.207031 L 0.25 104.207031 Z M 0.25 0.707031 " clip-rule="nonzero"/></clipPath><clipPath id="3707aabbd8"><path d="M 52 0.707031 C 23.417969 0.707031 0.25 23.878906 0.25 52.457031 C 0.25 81.039062 23.417969 104.207031 52 104.207031 C 80.582031 104.207031 103.75 81.039062 103.75 52.457031 C 103.75 23.878906 80.582031 0.707031 52 0.707031 Z M 52 0.707031 " clip-rule="nonzero"/></clipPath><clipPath id="ad69d9c15b"><rect x="0" width="104" y="0" height="105"/></clipPath></defs><g clip-path="url(#e0440965d1)"><g transform="matrix(1, 0, 0, 1, 293, 1)"><g clip-path="url(#452b82dac5)"><path fill="#ffffff" d="M 457 987.8125 C 428.964844 987.8125 406.242188 1010.539062 406.242188 1038.570312 C 406.242188 1066.601562 428.964844 1089.328125 457 1089.328125 C 485.03125 1089.328125 507.757812 1066.601562 507.757812 1038.570312 C 507.757812 1010.539062 485.03125 987.8125 457 987.8125 Z M 457 987.8125 " fill-opacity="1" fill-rule="nonzero"/><path fill="#ffffff" d="M 457 429.484375 C 428.964844 429.484375 406.242188 452.207031 406.242188 480.242188 C 406.242188 508.273438 428.964844 531 457 531 C 485.03125 531 507.757812 508.273438 507.757812 480.242188 C 507.757812 452.207031 485.03125 429.484375 457 429.484375 Z M 457 429.484375 " fill-opacity="1" fill-rule="nonzero"/><g clip-path="url(#d78c1d0834)"><path fill="#ffffff" d="M 913.8125 480.238281 C 913.8125 463.082031 912.867188 446.148438 911.027344 429.484375 L 859.914062 429.484375 C 861.988281 446.109375 863.058594 463.050781 863.058594 480.238281 C 863.058594 570.035156 833.9375 652.976562 784.601562 720.203125 C 772.722656 707.980469 760.164062 696.417969 746.984375 685.582031 C 788.109375 627.597656 812.300781 556.71875 812.300781 480.238281 C 812.300781 463.007812 811.074219 446.058594 808.703125 429.484375 L 757.332031 429.484375 C 760.101562 445.992188 761.542969 462.945312 761.542969 480.238281 C 761.542969 545.535156 741.019531 605.984375 706.054688 655.554688 C 691.835938 646.289062 677.066406 637.792969 661.8125 630.128906 C 692.589844 588.136719 710.785156 536.296875 710.785156 480.238281 C 710.785156 462.859375 709.039062 445.882812 705.710938 429.484375 L 653.632812 429.484375 C 657.808594 445.707031 660.027344 462.714844 660.027344 480.238281 C 660.027344 529.289062 642.660156 574.238281 613.707031 609.339844 C 595.992188 602.871094 577.765625 597.46875 559.101562 593.207031 C 589.914062 565.34375 609.269531 525.054688 609.269531 480.238281 C 609.269531 462.445312 606.21875 445.359375 600.605469 429.484375 L 544.933594 429.484375 C 553.570312 444.414062 558.515625 461.75 558.515625 480.238281 C 558.515625 536.304688 513.0625 581.753906 457 581.753906 C 400.9375 581.753906 355.484375 536.304688 355.484375 480.238281 C 355.484375 424.175781 400.9375 378.726562 457 378.726562 L 902.496094 378.726562 C 856.332031 175.292969 674.402344 23.425781 457 23.425781 C 204.710938 23.425781 0.1875 227.949219 0.1875 480.238281 C 0.1875 585.371094 35.699219 682.207031 95.386719 759.40625 C 35.710938 836.597656 0.1875 933.464844 0.1875 1038.570312 C 0.1875 1055.726562 1.132812 1072.660156 2.976562 1089.328125 L 54.085938 1089.328125 C 52.011719 1072.699219 50.941406 1055.761719 50.941406 1038.570312 C 50.941406 948.773438 80.066406 865.835938 129.398438 798.605469 C 141.277344 810.828125 153.835938 822.386719 167.015625 833.226562 C 125.886719 891.210938 101.699219 962.09375 101.699219 1038.566406 C 101.699219 1055.804688 102.925781 1072.75 105.296875 1089.328125 L 156.667969 1089.328125 C 153.898438 1072.820312 152.457031 1055.859375 152.457031 1038.566406 C 152.457031 973.273438 172.980469 912.824219 207.945312 863.253906 C 222.164062 872.519531 236.933594 881.011719 252.1875 888.679688 C 221.410156 930.671875 203.214844 982.511719 203.214844 1038.566406 C 203.214844 1055.949219 204.960938 1072.925781 208.292969 1089.328125 L 260.371094 1089.328125 C 256.191406 1073.101562 253.972656 1056.09375 253.972656 1038.566406 C 253.972656 989.519531 271.335938 944.570312 300.292969 909.46875 C 318.007812 915.9375 336.234375 921.339844 354.898438 925.601562 C 324.085938 953.464844 304.726562 993.753906 304.726562 1038.566406 C 304.726562 1056.367188 307.78125 1073.449219 313.394531 1089.328125 L 369.066406 1089.328125 C 360.429688 1074.394531 355.484375 1057.058594 355.484375 1038.566406 C 355.484375 982.503906 400.9375 937.054688 457 937.054688 C 513.0625 937.054688 558.515625 982.503906 558.515625 1038.566406 C 558.515625 1094.632812 513.0625 1140.082031 457 1140.082031 L 11.503906 1140.085938 C 57.664062 1343.515625 239.597656 1495.382812 457 1495.382812 C 709.292969 1495.382812 913.8125 1290.859375 913.8125 1038.566406 C 913.8125 933.4375 878.300781 836.601562 818.617188 759.402344 C 878.289062 682.210938 913.8125 585.347656 913.8125 480.238281 Z M 833.542969 327.96875 L 778.109375 327.96875 C 721.085938 207.929688 598.734375 124.941406 457 124.941406 C 260.773438 124.941406 101.699219 284.011719 101.699219 480.238281 C 101.699219 676.464844 260.773438 835.539062 457 835.539062 C 569.128906 835.539062 660.027344 926.4375 660.027344 1038.566406 C 660.027344 1150.699219 569.128906 1241.597656 457 1241.597656 C 405.507812 1241.597656 358.496094 1222.429688 322.707031 1190.839844 L 457 1190.839844 C 541.097656 1190.839844 609.269531 1122.664062 609.269531 1038.566406 C 609.269531 954.472656 541.097656 886.296875 457 886.296875 C 232.738281 886.296875 50.941406 704.5 50.941406 480.238281 C 50.941406 255.980469 232.738281 74.183594 457 74.183594 C 627.410156 74.183594 773.304688 179.160156 833.542969 327.96875 Z M 253.953125 1190.839844 L 193.199219 1190.84375 C 245.859375 1281.867188 344.277344 1343.109375 457 1343.109375 C 625.195312 1343.109375 761.542969 1206.761719 761.542969 1038.566406 C 761.542969 870.375 625.195312 734.027344 457 734.027344 C 316.839844 734.027344 203.214844 620.398438 203.214844 480.238281 C 203.214844 340.078125 316.839844 226.453125 457 226.453125 C 540.027344 226.453125 613.746094 266.324219 660.046875 327.96875 L 720.800781 327.96875 C 668.144531 236.941406 569.722656 175.695312 457 175.695312 C 288.804688 175.695312 152.457031 312.046875 152.457031 480.238281 C 152.457031 648.433594 288.804688 784.78125 457 784.78125 C 597.160156 784.78125 710.785156 898.40625 710.785156 1038.566406 C 710.785156 1178.730469 597.160156 1292.355469 457 1292.355469 C 373.972656 1292.355469 300.253906 1252.480469 253.953125 1190.839844 Z M 457 1393.867188 C 315.265625 1393.867188 192.914062 1310.878906 135.890625 1190.84375 L 80.457031 1190.84375 C 140.695312 1339.652344 286.589844 1444.625 457 1444.625 C 681.257812 1444.625 863.058594 1262.828125 863.058594 1038.566406 C 863.058594 814.308594 681.257812 632.511719 457 632.511719 C 372.902344 632.511719 304.726562 564.335938 304.726562 480.238281 C 304.726562 396.144531 372.902344 327.96875 457 327.96875 L 591.292969 327.96875 C 555.503906 296.378906 508.492188 277.210938 457 277.210938 C 344.871094 277.210938 253.972656 368.109375 253.972656 480.238281 C 253.972656 592.371094 344.871094 683.269531 457 683.269531 C 653.226562 683.269531 812.300781 842.339844 812.300781 1038.566406 C 812.300781 1234.796875 653.226562 1393.867188 457 1393.867188 Z M 457 1393.867188 " fill-opacity="1" fill-rule="evenodd"/></g></g></g></g><g clip-path="url(#baf89420df)"><g clip-path="url(#857577b254)"><g transform="matrix(1, 0, 0, 1, 698, 430)"><g clip-path="url(#67b5cbc866)"><g clip-path="url(#036f1994b6)"><g clip-path="url(#e55a3ed624)"><path fill="#9a0002" d="M 0.25 0.253906 L 103.75 0.253906 L 103.75 103.753906 L 0.25 103.753906 Z M 0.25 0.253906 " fill-opacity="1" fill-rule="nonzero"/></g></g></g></g></g></g><g clip-path="url(#3224ec60fa)"><g clip-path="url(#1c1140890d)"><g transform="matrix(1, 0, 0, 1, 698, 987)"><g clip-path="url(#ad69d9c15b)"><g clip-path="url(#b095314846)"><g clip-path="url(#3707aabbd8)"><path fill="#9a0002" d="M 0.25 0.707031 L 103.75 0.707031 L 103.75 104.207031 L 0.25 104.207031 Z M 0.25 0.707031 " fill-opacity="1" fill-rule="nonzero"/></g></g></g></g></g></g></svg>