<svg xmlns="http://www.w3.org/2000/svg" xmlns:xlink="http://www.w3.org/1999/xlink" width="375" zoomAndPan="magnify" viewBox="0 0 281.25 281.249989" height="375" preserveAspectRatio="xMidYMid meet" version="1.0"><defs><clipPath id="4cb53dfe98"><path d="M 8.394531 96.582031 L 61.664062 96.582031 L 61.664062 183 L 8.394531 183 Z M 8.394531 96.582031 " clip-rule="nonzero"/></clipPath></defs><path fill="#9a0002" d="M 35.03125 126.324219 C 36.664062 126.324219 37.992188 125 37.992188 123.367188 C 37.992188 121.730469 36.664062 120.40625 35.03125 120.40625 C 33.394531 120.40625 32.070312 121.730469 32.070312 123.367188 C 32.070312 125 33.394531 126.324219 35.03125 126.324219 Z M 35.03125 126.324219 " fill-opacity="1" fill-rule="nonzero"/><path fill="#9a0002" d="M 35.03125 158.878906 C 36.664062 158.878906 37.992188 157.554688 37.992188 155.917969 C 37.992188 154.285156 36.664062 152.960938 35.03125 152.960938 C 33.394531 152.960938 32.070312 154.285156 32.070312 155.917969 C 32.070312 157.554688 33.394531 158.878906 35.03125 158.878906 Z M 35.03125 158.878906 " fill-opacity="1" fill-rule="nonzero"/><g clip-path="url(#4cb53dfe98)"><path fill="#efe6de" d="M 8.394531 155.917969 C 8.394531 156.921875 8.449219 157.90625 8.558594 158.878906 L 11.539062 158.878906 C 11.414062 157.90625 11.355469 156.921875 11.355469 155.917969 C 11.355469 150.683594 13.050781 145.847656 15.929688 141.929688 C 16.621094 142.640625 17.351562 143.316406 18.121094 143.945312 C 15.726562 147.328125 14.3125 151.460938 14.3125 155.917969 C 14.3125 156.921875 14.382812 157.910156 14.523438 158.878906 L 17.519531 158.878906 C 17.355469 157.917969 17.273438 156.925781 17.273438 155.917969 C 17.273438 152.109375 18.46875 148.585938 20.507812 145.699219 C 21.339844 146.238281 22.199219 146.730469 23.089844 147.179688 C 21.292969 149.628906 20.234375 152.652344 20.234375 155.917969 C 20.234375 156.933594 20.332031 157.921875 20.527344 158.878906 L 23.566406 158.878906 C 23.324219 157.929688 23.191406 156.941406 23.191406 155.917969 C 23.191406 153.0625 24.203125 150.441406 25.894531 148.390625 C 26.925781 148.769531 27.988281 149.082031 29.074219 149.332031 C 27.277344 150.957031 26.152344 153.304688 26.152344 155.917969 C 26.152344 156.957031 26.328125 157.953125 26.65625 158.878906 L 29.902344 158.878906 C 29.398438 158.007812 29.109375 156.996094 29.109375 155.917969 C 29.109375 152.652344 31.761719 150 35.03125 150 C 38.296875 150 40.949219 152.652344 40.949219 155.917969 C 40.949219 159.1875 38.296875 161.839844 35.03125 161.839844 L 9.054688 161.839844 C 11.746094 173.699219 22.355469 182.554688 35.03125 182.554688 C 49.738281 182.554688 61.664062 170.628906 61.664062 155.917969 C 61.664062 149.789062 59.59375 144.144531 56.113281 139.644531 C 59.59375 135.140625 61.664062 129.496094 61.664062 123.367188 C 61.664062 122.367188 61.609375 121.378906 61.503906 120.40625 L 58.523438 120.40625 C 58.640625 121.375 58.703125 122.363281 58.703125 123.367188 C 58.703125 128.601562 57.007812 133.4375 54.132812 137.359375 C 53.4375 136.644531 52.707031 135.96875 51.9375 135.339844 C 54.335938 131.957031 55.746094 127.824219 55.746094 123.367188 C 55.746094 122.359375 55.671875 121.371094 55.535156 120.40625 L 52.542969 120.40625 C 52.703125 121.371094 52.785156 122.355469 52.785156 123.367188 C 52.785156 127.171875 51.589844 130.695312 49.550781 133.589844 C 48.722656 133.046875 47.859375 132.550781 46.972656 132.105469 C 48.765625 129.65625 49.828125 126.636719 49.828125 123.367188 C 49.828125 122.351562 49.726562 121.363281 49.53125 120.40625 L 46.492188 120.40625 C 46.738281 121.351562 46.867188 122.34375 46.867188 123.367188 C 46.867188 126.226562 45.851562 128.847656 44.167969 130.890625 C 43.132812 130.515625 42.070312 130.199219 40.984375 129.953125 C 42.78125 128.328125 43.90625 125.976562 43.90625 123.367188 C 43.90625 122.328125 43.730469 121.332031 43.402344 120.40625 L 40.15625 120.40625 C 40.660156 121.277344 40.949219 122.289062 40.949219 123.367188 C 40.949219 126.636719 38.296875 129.285156 35.03125 129.285156 C 31.761719 129.285156 29.109375 126.636719 29.109375 123.367188 C 29.109375 120.097656 31.761719 117.449219 35.03125 117.449219 L 61.003906 117.449219 C 58.3125 105.585938 47.707031 96.730469 35.03125 96.730469 C 20.320312 96.730469 8.394531 108.65625 8.394531 123.367188 C 8.394531 129.496094 10.464844 135.140625 13.945312 139.644531 C 10.464844 144.144531 8.394531 149.789062 8.394531 155.917969 Z M 13.074219 164.796875 L 16.308594 164.796875 C 19.632812 171.796875 26.765625 176.632812 35.03125 176.632812 C 46.46875 176.632812 55.746094 167.359375 55.746094 155.917969 C 55.746094 144.480469 46.46875 135.203125 35.03125 135.203125 C 28.492188 135.203125 23.191406 129.90625 23.191406 123.367188 C 23.191406 116.828125 28.492188 111.527344 35.03125 111.527344 C 38.03125 111.527344 40.773438 112.644531 42.859375 114.488281 L 35.03125 114.488281 C 30.128906 114.488281 26.152344 118.460938 26.152344 123.367188 C 26.152344 128.269531 30.128906 132.246094 35.03125 132.246094 C 48.105469 132.246094 58.703125 142.84375 58.703125 155.917969 C 58.703125 168.992188 48.105469 179.59375 35.03125 179.59375 C 25.09375 179.59375 16.585938 173.472656 13.074219 164.796875 Z M 46.867188 114.488281 L 50.410156 114.488281 C 47.339844 109.179688 41.601562 105.609375 35.03125 105.609375 C 25.222656 105.609375 17.273438 113.558594 17.273438 123.367188 C 17.273438 133.171875 25.222656 141.121094 35.03125 141.121094 C 43.203125 141.121094 49.828125 147.75 49.828125 155.917969 C 49.828125 164.089844 43.203125 170.71875 35.03125 170.71875 C 30.1875 170.71875 25.890625 168.390625 23.191406 164.796875 L 19.648438 164.796875 C 22.71875 170.105469 28.457031 173.675781 35.03125 173.675781 C 44.835938 173.675781 52.785156 165.726562 52.785156 155.917969 C 52.785156 146.113281 44.835938 138.160156 35.03125 138.160156 C 26.859375 138.160156 20.234375 131.539062 20.234375 123.367188 C 20.234375 115.191406 26.859375 108.570312 35.03125 108.570312 C 39.871094 108.570312 44.167969 110.894531 46.867188 114.488281 Z M 35.03125 102.648438 C 43.292969 102.648438 50.425781 107.488281 53.75 114.488281 L 56.984375 114.488281 C 53.46875 105.8125 44.964844 99.691406 35.03125 99.691406 C 21.957031 99.691406 11.355469 110.289062 11.355469 123.367188 C 11.355469 136.441406 21.957031 147.042969 35.03125 147.042969 C 39.933594 147.042969 43.90625 151.015625 43.90625 155.917969 C 43.90625 160.824219 39.933594 164.796875 35.03125 164.796875 L 27.199219 164.796875 C 29.285156 166.636719 32.027344 167.757812 35.03125 167.757812 C 41.566406 167.757812 46.867188 162.457031 46.867188 155.917969 C 46.867188 149.382812 41.566406 144.082031 35.03125 144.082031 C 23.589844 144.082031 14.3125 134.808594 14.3125 123.367188 C 14.3125 111.925781 23.589844 102.648438 35.03125 102.648438 Z M 35.03125 102.648438 " fill-opacity="1" fill-rule="evenodd"/></g><path fill="#efe6de" d="M 84.449219 163.136719 C 81.167969 163.136719 78.332031 162.53125 75.941406 161.3125 C 73.546875 160.09375 71.726562 158.492188 70.484375 156.511719 C 69.234375 154.53125 68.613281 152.441406 68.613281 150.246094 L 68.613281 149.730469 L 79.679688 149.730469 L 79.679688 150.164062 C 79.679688 151.296875 80.121094 152.289062 81 153.144531 C 81.882812 153.996094 83.128906 154.417969 84.742188 154.417969 C 86.101562 154.417969 87.199219 154.089844 88.027344 153.4375 C 88.859375 152.777344 89.277344 151.90625 89.277344 150.832031 C 89.277344 149.847656 88.886719 149.066406 88.109375 148.480469 C 87.328125 147.898438 86.347656 147.507812 85.175781 147.3125 L 81 146.425781 C 78.164062 145.941406 75.546875 144.808594 73.148438 143.023438 C 70.753906 141.242188 69.558594 138.488281 69.558594 134.773438 C 69.558594 131.007812 70.914062 128.09375 73.628906 126.019531 C 76.34375 123.9375 79.828125 122.898438 84.074219 122.898438 C 87.253906 122.898438 89.988281 123.464844 92.28125 124.59375 C 94.578125 125.714844 96.3125 127.191406 97.480469 129.019531 C 98.65625 130.851562 99.246094 132.792969 99.246094 134.84375 L 99.246094 135.214844 L 88.179688 135.214844 L 88.179688 134.992188 C 88.179688 134.019531 87.808594 133.117188 87.078125 132.28125 C 86.347656 131.449219 85.222656 131.03125 83.714844 131.03125 C 82.441406 131.03125 81.425781 131.339844 80.664062 131.953125 C 79.90625 132.5625 79.527344 133.402344 79.527344 134.480469 C 79.527344 136.390625 81.117188 137.636719 84.296875 138.21875 L 88.84375 139.25 C 91.921875 139.933594 94.523438 141.183594 96.652344 142.988281 C 98.777344 144.796875 99.84375 147.359375 99.84375 150.679688 C 99.84375 153.21875 99.167969 155.433594 97.820312 157.316406 C 96.480469 159.195312 94.636719 160.636719 92.292969 161.640625 C 89.945312 162.636719 87.332031 163.136719 84.449219 163.136719 Z M 84.449219 163.136719 " fill-opacity="1" fill-rule="nonzero"/><path fill="#efe6de" d="M 104.460938 123.703125 L 115.820312 123.703125 L 115.820312 129.863281 L 116.402344 129.863281 C 116.988281 128.152344 118.144531 126.695312 119.875 125.503906 C 121.609375 124.304688 123.875 123.703125 126.664062 123.703125 C 127.5 123.703125 128.28125 123.78125 129.015625 123.925781 L 128.5 134.410156 C 127.371094 134.019531 126.074219 133.824219 124.609375 133.824219 C 121.527344 133.824219 119.292969 134.609375 117.898438 136.175781 C 116.511719 137.734375 115.820312 140.320312 115.820312 143.933594 L 115.820312 162.484375 L 104.460938 162.484375 Z M 104.460938 123.703125 " fill-opacity="1" fill-rule="nonzero"/><path fill="#efe6de" d="M 132.820312 123.703125 L 144.179688 123.703125 L 144.179688 162.484375 L 132.820312 162.484375 Z M 138.464844 117.253906 C 136.703125 117.253906 135.234375 116.65625 134.058594 115.464844 C 132.890625 114.265625 132.304688 112.808594 132.304688 111.09375 C 132.304688 109.339844 132.890625 107.863281 134.058594 106.664062 C 135.234375 105.464844 136.703125 104.863281 138.464844 104.863281 C 140.222656 104.863281 141.703125 105.464844 142.894531 106.664062 C 144.09375 107.863281 144.695312 109.339844 144.695312 111.09375 C 144.695312 112.808594 144.09375 114.265625 142.894531 115.464844 C 141.703125 116.65625 140.222656 117.253906 138.464844 117.253906 Z M 138.464844 117.253906 " fill-opacity="1" fill-rule="nonzero"/><path fill="#efe6de" d="M 165.855469 132.261719 L 165.855469 147.828125 C 165.855469 149.542969 165.941406 150.808594 166.113281 151.617188 C 166.28125 152.417969 166.773438 153.066406 167.585938 153.554688 C 168.394531 154.046875 169.703125 154.292969 171.511719 154.292969 C 172.4375 154.292969 173.394531 154.195312 174.375 153.988281 L 174.375 161.925781 C 173.882812 162.019531 172.902344 162.128906 171.429688 162.253906 C 169.964844 162.375 168.5 162.4375 167.035156 162.4375 C 163.214844 162.4375 160.386719 161.878906 158.550781 160.757812 C 156.71875 159.628906 155.582031 158.253906 155.136719 156.640625 C 154.699219 155.023438 154.484375 152.914062 154.484375 150.320312 L 154.484375 132.261719 L 148.242188 132.261719 L 148.242188 123.378906 L 154.484375 123.378906 L 154.484375 110.828125 L 165.855469 110.828125 L 165.855469 123.378906 L 174.375 123.378906 L 174.375 132.261719 Z M 165.855469 132.261719 " fill-opacity="1" fill-rule="nonzero"/><path fill="#efe6de" d="M 197.351562 162.882812 C 193.238281 162.882812 189.773438 161.941406 186.964844 160.054688 C 184.148438 158.171875 182.070312 155.703125 180.722656 152.644531 C 179.371094 149.582031 178.699219 146.285156 178.699219 142.757812 C 178.699219 139.234375 179.371094 135.949219 180.722656 132.894531 C 182.070312 129.832031 184.148438 127.347656 186.964844 125.4375 C 189.773438 123.527344 193.289062 122.574219 197.503906 122.574219 C 202.980469 122.574219 207.335938 124.300781 210.558594 127.75 C 213.792969 131.195312 215.410156 136.199219 215.410156 142.757812 L 215.410156 145.914062 L 189.722656 145.914062 L 189.722656 146.507812 C 189.722656 148.511719 190.417969 150.238281 191.8125 151.6875 C 193.207031 153.128906 194.980469 153.847656 197.132812 153.847656 C 198.796875 153.847656 200.21875 153.472656 201.386719 152.714844 C 202.558594 151.953125 203.394531 150.9375 203.886719 149.664062 L 215.117188 149.664062 C 214.144531 153.53125 212.125 156.699219 209.0625 159.179688 C 206.003906 161.648438 202.097656 162.882812 197.351562 162.882812 Z M 204.472656 138.574219 C 204.425781 135.929688 203.75 133.976562 202.449219 132.707031 C 201.15625 131.429688 199.433594 130.789062 197.285156 130.789062 C 195.078125 130.789062 193.324219 131.476562 192.023438 132.847656 C 190.730469 134.21875 190.058594 136.128906 190.011719 138.574219 Z M 204.472656 138.574219 " fill-opacity="1" fill-rule="nonzero"/><path fill="#efe6de" d="M 220.628906 107.742188 L 232.15625 107.742188 L 232.15625 137.988281 L 232.515625 137.988281 L 243.316406 123.378906 L 255.9375 123.378906 L 242.941406 141.296875 L 256.230469 162.21875 L 243.539062 162.21875 L 232.597656 143.644531 L 232.15625 143.644531 L 232.15625 162.21875 L 220.628906 162.21875 Z M 220.628906 107.742188 " fill-opacity="1" fill-rule="nonzero"/><path fill="#efe6de" d="M 269.078125 162.882812 C 267.269531 162.882812 265.777344 162.269531 264.601562 161.046875 C 263.421875 159.816406 262.835938 158.320312 262.835938 156.558594 C 262.835938 154.800781 263.421875 153.320312 264.601562 152.117188 C 265.777344 150.921875 267.269531 150.320312 269.078125 150.320312 C 270.890625 150.320312 272.398438 150.921875 273.601562 152.117188 C 274.796875 153.320312 275.398438 154.800781 275.398438 156.558594 C 275.398438 158.320312 274.785156 159.816406 273.566406 161.046875 C 272.339844 162.269531 270.84375 162.882812 269.078125 162.882812 Z M 269.078125 162.882812 " fill-opacity="1" fill-rule="nonzero"/></svg>